<svg enable-background="new 0 0 256 256" viewBox="0 0 256 256" xmlns="http://www.w3.org/2000/svg"><path d="m183.86 133.53c-3.61 11.3-11.39 20.5-21.91 25.92-7.54 3.89-15.85 5.46-24.11 4.74-.5-5.79-5.55-10.14-11.37-9.73-5.88.41-10.32 5.51-9.91 11.4.41 5.88 5.51 10.32 11.4 9.91 3.7-.26 6.83-2.38 8.54-5.38 9.69 1.01 19.48-.79 28.33-5.35 3.4-1.75 6.55-3.85 9.41-6.26 7.24-6.08 12.65-14.1 15.6-23.33 12.35-38.63-6.35-79.86-42.12-96.66.47-5.66-3.56-10.74-9.25-11.47-5.85-.75-11.2 3.38-11.95 9.23s3.38 11.2 9.23 11.95c3.81.49 7.38-1.11 9.63-3.89 32.75 15.58 49.82 53.44 38.48 88.92zm-52.39 31.27c.13 1.83-.92 3.45-2.49 4.17-.45.21-.95.35-1.47.39-2.35.16-4.4-1.61-4.56-3.96s1.61-4.4 3.96-4.56c1.7-.12 3.22.78 4.01 2.17.3.54.51 1.14.55 1.79zm7.27-122.97c-.67.28-1.4.4-2.17.31-2.34-.3-3.99-2.44-3.69-4.78s2.44-3.99 4.78-3.69c1.45.19 2.63 1.08 3.25 2.28.38.74.56 1.6.44 2.5-.2 1.57-1.24 2.81-2.61 3.38z" fill="#4c9fc8"/><path d="m48.02 146.51c2.98-19.44 13.36-36.58 29.25-48.22 9.56-7.01 21.26-9.89 32.96-8.09 8.42 1.29 16.1 4.93 22.37 10.41-2.94 4.97-1.41 11.4 3.51 14.48 5 3.13 11.59 1.6 14.72-3.4s1.6-11.59-3.4-14.72c-3.17-1.98-6.97-2.08-10.13-.63-7.26-6.54-16.25-10.84-26.12-12.35-13.36-2.05-26.72 1.23-37.63 9.24-17.23 12.66-28.5 31.23-31.74 52.32-2.71 17.63.49 35.26 8.99 50.64-3.69 4.3-3.42 10.77.75 14.7 4.29 4.05 11.05 3.85 15.1-.45 4.05-4.29 3.85-11.05-.45-15.1-2.8-2.64-6.63-3.44-10.09-2.51-7.68-14.08-10.56-30.2-8.09-46.32zm94.54-44.67c.51.09 1.02.28 1.49.57 2 1.25 2.61 3.89 1.36 5.89s-3.89 2.61-5.89 1.36c-1.4-.88-2.1-2.43-1.98-3.97.05-.66.24-1.32.62-1.92.96-1.53 2.73-2.24 4.4-1.93zm-80.74 98.18c1.72 1.62 1.8 4.32.18 6.04s-4.32 1.8-6.04.18c-1.06-1-1.49-2.41-1.29-3.75.13-.83.49-1.63 1.11-2.29 1.09-1.15 2.66-1.55 4.1-1.21.7.17 1.37.5 1.94 1.03z" fill="#fa4616"/><path d="m165.82 208.19c-3.37 1.84-5.32 5.24-5.51 8.82-15.78 2.96-32 .72-46.57-6.62-17.57-8.84-30.64-24.02-36.82-42.72-3.72-11.26-2.83-23.28 2.49-33.85 3.83-7.61 9.66-13.79 16.81-18.06 3.82 4.34 10.41 4.87 14.86 1.14 4.52-3.79 5.11-10.53 1.32-15.05s-10.53-5.11-15.05-1.32c-2.86 2.4-4.14 5.99-3.73 9.44-8.46 4.88-15.33 12.11-19.82 21.03-6.08 12.07-7.09 25.79-2.84 38.64 6.7 20.29 20.89 36.76 39.96 46.35 15.93 8.02 33.69 10.43 50.94 7.1 2.95 4.84 9.19 6.58 14.22 3.83 5.17-2.83 7.07-9.32 4.24-14.5-2.84-5.16-9.33-7.06-14.5-4.23zm-64.35-102.75c1.81-1.52 4.5-1.28 6.02.53s1.28 4.5-.53 6.02c-1.26 1.06-2.96 1.25-4.38.65-.61-.25-1.18-.64-1.63-1.18-1.16-1.38-1.29-3.28-.48-4.78.25-.46.58-.89 1-1.24zm73.23 110.07c1.13 2.07.37 4.67-1.7 5.8-1.28.7-2.76.67-3.97.07-.75-.38-1.4-.97-1.83-1.76-.76-1.39-.65-3.01.12-4.27.38-.62.9-1.16 1.58-1.53 2.07-1.14 4.66-.38 5.8 1.69z" fill="#ece81a"/><path d="m217.31 104.94c-5.8 1.09-9.61 6.68-8.51 12.48.71 3.77 3.34 6.67 6.67 7.96-4.71 35.95-35.43 63.89-72.68 64.07-21.11.1-38.85-14.65-43.4-34.41 5.3-2.3 7.84-8.39 5.66-13.78-2.21-5.47-8.43-8.11-13.9-5.9s-8.11 8.43-5.9 13.9c1.4 3.47 4.42 5.79 7.84 6.46 4.92 22.92 25.38 40.11 49.73 39.99 18.86-.09 36.68-6.64 50.93-18.6 1.9-1.59 3.74-3.29 5.51-5.07 12.55-12.68 20.33-28.82 22.49-46.25 5.52-1.31 9.1-6.71 8.04-12.34-1.09-5.79-6.68-9.6-12.48-8.51zm-126.11 41.92c-.88-2.19.17-4.68 2.36-5.56s4.68.17 5.56 2.36c.62 1.53.27 3.19-.73 4.36-.43.51-.97.93-1.63 1.2-1.67.68-3.52.21-4.69-1.02-.36-.38-.67-.82-.87-1.34zm132.29-32.21c.27 1.43-.21 2.83-1.16 3.79-.59.6-1.36 1.03-2.24 1.2-1.56.29-3.07-.31-4.03-1.44-.47-.55-.82-1.21-.96-1.97-.44-2.32 1.09-4.55 3.41-4.99 2.31-.44 4.55 1.09 4.98 3.41z" fill="#78be20"/><path d="m47.63 96.66c1.64-3.47 1.22-7.37-.73-10.37 11.03-11.68 25.47-19.4 41.57-22.03 19.41-3.17 38.91 1.42 54.9 12.92 17.13 12.32 22.84 34.69 14.91 53.35-5.64-1.27-11.3 2.17-12.7 7.81-1.43 5.72 2.06 11.52 7.78 12.95s11.52-2.06 12.95-7.78c.91-3.63-.18-7.28-2.54-9.84 9.49-21.43 3.04-47.37-16.73-61.59-17.35-12.48-38.51-17.46-59.57-14.02-17.61 2.88-33.39 11.36-45.38 24.2-5.23-2.18-11.3.07-13.75 5.25-2.52 5.33-.24 11.7 5.09 14.22 5.31 2.54 11.68.27 14.2-5.07zm112.45 45.31c-.57 2.29-2.89 3.68-5.18 3.11s-3.68-2.89-3.11-5.18c.4-1.62 1.69-2.78 3.22-3.12.63-.14 1.29-.16 1.96.01 1.75.44 2.97 1.9 3.19 3.59.07.52.06 1.05-.08 1.59zm-125.97-51.7c.62-1.32 1.83-2.17 3.17-2.39.83-.14 1.7-.04 2.52.35 1.43.68 2.3 2.05 2.41 3.53.06.72-.05 1.46-.38 2.16-1.01 2.13-3.56 3.04-5.69 2.04-2.12-1.01-3.04-3.56-2.03-5.69z" fill="#004ea8"/></svg>